<?xml version="1.0" encoding="UTF-8"?>
<svg viewBox="0 0 64 64" xmlns="http://www.w3.org/2000/svg">
 <defs>
  <radialGradient id="b" cx="-78.434" cy="-33.967" r="15.796" gradientTransform="matrix(-1.0049 .04102 -.04454 -1.0912 -50.142 -5.6137)" gradientUnits="userSpaceOnUse">
   <stop stop-color="#ffff3e" offset="0"/>
   <stop stop-color="#ffc022" offset="1"/>
  </radialGradient>
  <radialGradient id="a" cx="-102.94" cy="-32.988" r="5.7192" gradientTransform="matrix(-.96293 .96293 -1.532 -1.532 -134.05 77.796)" gradientUnits="userSpaceOnUse">
   <stop stop-color="#fc0" offset="0"/>
   <stop stop-color="#f60" offset="1"/>
  </radialGradient>
 </defs>
 <text transform="scale(1.2918,.7741)" x="10.4846" y="40.06643" fill="#555753" font-family="Franklin Gothic Book" font-size="1.7764">
  <tspan x="10.4846" y="40.06643"/>
 </text>
 <path d="m7.8247 42.724 1.6398 2.4808c2.0987-1.5037 4.7011-2.3712 7.382-2.676 2.7977-0.318 5.7021-0.05654 8.5946 0.41391 2.9871 0.48975 5.9625 1.2286 8.9573 1.9537 2.7751 0.67368 5.5833 1.3621 8.4517 1.7264 5.0686 0.63814 10.14 0.31285 15.19 0.1642-5.05-0.14867-10.142-0.12445-15.052-1.0455-2.7751-0.51752-5.4866-1.3578-8.2208-2.192-2.9416-0.8996-5.9007-1.821-8.9541-2.5108h-2e-6c-2.9521-0.67092-6.0233-1.1221-9.162-0.96805-3.0509 0.15097-6.1282 0.98647-8.8263 2.6534z" fill="#039" fill-rule="evenodd"/>
 <path d="m11.398 45.704 1.1736 1.7756c1.5021-1.0762 3.3648-1.6971 5.2836-1.9153 2.0024-0.2276 4.0812-0.04048 6.1516 0.29625 2.138 0.35053 4.2676 0.87934 6.4111 1.3983 1.9863 0.48219 3.9962 0.97492 6.0492 1.2356 3.6278 0.45674 7.2576 0.22391 10.872 0.11752-3.6145-0.10642-7.259-0.08908-10.773-0.74831-1.9862-0.37041-3.927-0.97185-5.884-1.5689-2.1054-0.64388-4.2234-1.3033-6.4088-1.7971h-2e-6c-2.1129-0.48021-4.3111-0.80314-6.5576-0.69287-2.1837 0.10807-4.3862 0.70606-6.3173 1.8991z" fill="#09f" fill-rule="evenodd"/>
 <path d="m19.27 38.849 0.16198-24.296-6.803 24.782c2.2137-1.1822 4.4273-1.0181 6.641-0.48593z" fill="url(#a)"/>
 <path d="m21.214 39.011c2.0334-11.199 0.31724-20.792-0.48592-30.775 8.9799 9.8701 14.056 22.083 18.789 34.501-5.5057-1.7379-10.349-4.0282-18.303-3.7254z" fill="url(#b)"/>
</svg>
